<?xml version="1.0" standalone="no"?>
<!DOCTYPE svg PUBLIC "-//W3C//DTD SVG 20010904//EN"
 "http://www.w3.org/TR/2001/REC-SVG-20010904/DTD/svg10.dtd">
<svg version="1.0" xmlns="http://www.w3.org/2000/svg"
 width="180.000000pt" height="180.000000pt" viewBox="0 0 180.000000 180.000000"
 preserveAspectRatio="xMidYMid meet">
<metadata>
Created by potrace 1.11, written by Peter Selinger 2001-2013
</metadata>
<g transform="translate(0.000000,180.000000) scale(0.100000,-0.100000)"
fill="#000000" stroke="none">
<path d="M886 1609 c-70 -11 -80 -32 -79 -165 0 -115 1 -118 27 -141 15 -13
34 -23 42 -24 70 -5 184 -3 207 4 53 17 64 62 58 239 -1 37 -37 87 -64 89 -61
4 -161 3 -191 -2z"/>
<path d="M1276 1384 c-14 -14 -23 -87 -16 -134 4 -27 35 -39 97 -40 54 0 64 3
77 23 17 28 16 128 -3 150 -19 23 -133 24 -155 1z"/>
<path d="M444 1289 c-44 -8 -83 -47 -85 -87 -6 -133 0 -212 17 -241 24 -41 39
-45 169 -46 174 -2 188 11 190 183 1 121 -9 160 -48 181 -25 13 -184 19 -243
10z"/>
<path d="M1038 1080 c-85 -26 -157 -99 -178 -182 -29 -115 24 -242 123 -295
95 -50 223 -39 295 27 36 32 40 51 16 74 -19 20 -38 20 -56 2 -48 -47 -138
-61 -203 -30 -37 17 -78 63 -89 100 -6 20 -4 21 194 21 145 0 204 4 215 13 40
33 -4 162 -75 219 -68 55 -164 75 -242 51z m152 -95 c28 -15 62 -50 78 -80 10
-20 7 -20 -151 -20 -98 0 -162 4 -164 10 -2 6 11 27 28 48 48 59 141 77 209
42z"/>
<path d="M470 750 c-17 -17 -20 -33 -20 -98 0 -104 11 -115 111 -114 46 1 79
6 95 17 22 14 24 22 24 95 0 108 -12 120 -115 120 -62 0 -79 -4 -95 -20z"/>
<path d="M1368 643 c-2 -5 -1 -24 3 -43 3 -19 7 -28 9 -20 1 8 2 19 1 24 -1 4
3 14 9 20 5 7 7 16 3 19 -9 9 -21 9 -25 0z"/>
<path d="M1412 608 c0 -29 2 -37 7 -24 7 19 8 19 15 1 6 -16 9 -17 17 -5 8 13
10 13 19 0 7 -11 10 -6 10 21 0 47 -11 56 -26 22 l-12 -28 -11 28 c-6 15 -12
27 -14 27 -2 0 -4 -19 -5 -42z"/>
<path d="M825 462 c-67 -4 -84 -11 -98 -40 -11 -22 -15 -114 -8 -189 3 -30 49
-45 138 -44 75 1 90 4 110 23 21 19 23 30 23 109 0 131 -23 151 -165 141z"/>
</g>
</svg>
